<svg xmlns="http://www.w3.org/2000/svg" width="672" height="936" viewBox="0 0 672 936" font-family="Georgia,'Times New Roman',serif" data-visual-key="25a6e45a2ce7" data-palette="7" data-style="2" data-layout="3" data-content-files="9" data-content-words="8057" data-content-headings="68">
<defs>
<filter id="grain"><feTurbulence type="fractalNoise" baseFrequency="0.9" numOctaves="2" seed="199" stitchTiles="stitch"/><feColorMatrix type="matrix" values="0 0 0 0 0 0 0 0 0 0 0 0 0 0 0 0.55 0.55 0.55 0 0"/></filter>
</defs>
<rect width="672" height="936" fill="#232334"/>
<rect x="0" y="76" width="672" height="16" fill="#dfa055"/><rect x="0" y="110" width="672" height="16" fill="#dfa055"/><rect x="0" y="144" width="672" height="16" fill="#dfa055"/><rect x="0" y="178" width="672" height="16" fill="#dfa055"/><rect x="0" y="212" width="672" height="16" fill="#dfa055"/><rect x="0" y="742" width="672" height="16" fill="#dfa055"/><text x="336" y="299" text-anchor="middle" font-size="14" letter-spacing="4" fill="#eeedf3" opacity="0.75" font-family="ui-monospace,SFMono-Regular,Menlo,monospace">AI &amp; AGENTS</text><text x="336" y="409" text-anchor="middle" font-size="82" font-weight="bold" letter-spacing="1" fill="#eeedf3" font-family="ui-monospace,SFMono-Regular,Menlo,monospace">MCP</text><text x="336" y="496" text-anchor="middle" font-size="82" font-weight="bold" letter-spacing="1" fill="#eeedf3" font-family="ui-monospace,SFMono-Regular,Menlo,monospace">SERVER</text><text x="336" y="547" text-anchor="middle" font-size="17" font-style="italic" fill="#eeedf3" opacity="0.72">Build, extend, and maintain a Model Context Protocol</text><text x="336" y="570" text-anchor="middle" font-size="17" font-style="italic" fill="#eeedf3" opacity="0.72">(MCP) server across its whole lifecycle against the...</text>
<text x="336" y="832" text-anchor="middle" font-size="13" letter-spacing="1" fill="#eeedf3" opacity="0.75" font-family="ui-monospace,SFMono-Regular,Menlo,monospace">did:web:saschb2b.com</text>
<line x1="56" y1="850" x2="616" y2="850" stroke="#eeedf3" stroke-width="1" opacity="0.35"/>
<rect x="56" y="879" width="20" height="7" fill="#eeedf3" opacity="1"/><rect x="56" y="870" width="20" height="7" fill="#eeedf3" opacity="1"/><rect x="56" y="861" width="20" height="7" fill="#eeedf3" opacity="1"/><text x="66" y="904" text-anchor="middle" font-size="11" fill="#eeedf3" opacity="0.7" font-family="ui-monospace,SFMono-Regular,Menlo,monospace">I</text><rect x="82" y="879" width="20" height="7" fill="#eeedf3" opacity="0.16"/><rect x="82" y="870" width="20" height="7" fill="#eeedf3" opacity="0.16"/><rect x="82" y="861" width="20" height="7" fill="#eeedf3" opacity="0.16"/><text x="92" y="904" text-anchor="middle" font-size="11" fill="#eeedf3" opacity="0.7" font-family="ui-monospace,SFMono-Regular,Menlo,monospace">A</text><rect x="108" y="879" width="20" height="7" fill="#eeedf3" opacity="1"/><rect x="108" y="870" width="20" height="7" fill="#eeedf3" opacity="1"/><rect x="108" y="861" width="20" height="7" fill="#eeedf3" opacity="0.16"/><text x="118" y="904" text-anchor="middle" font-size="11" fill="#eeedf3" opacity="0.7" font-family="ui-monospace,SFMono-Regular,Menlo,monospace">C</text><rect x="134" y="879" width="20" height="7" fill="#eeedf3" opacity="0.16"/><rect x="134" y="870" width="20" height="7" fill="#eeedf3" opacity="0.16"/><rect x="134" y="861" width="20" height="7" fill="#eeedf3" opacity="0.16"/><text x="144" y="904" text-anchor="middle" font-size="11" fill="#eeedf3" opacity="0.7" font-family="ui-monospace,SFMono-Regular,Menlo,monospace">P</text><rect x="160" y="879" width="20" height="7" fill="#eeedf3" opacity="0.16"/><rect x="160" y="870" width="20" height="7" fill="#eeedf3" opacity="0.16"/><rect x="160" y="861" width="20" height="7" fill="#eeedf3" opacity="0.16"/><text x="170" y="904" text-anchor="middle" font-size="11" fill="#eeedf3" opacity="0.7" font-family="ui-monospace,SFMono-Regular,Menlo,monospace">V</text><rect x="186" y="879" width="20" height="7" fill="#eeedf3" opacity="1"/><rect x="186" y="870" width="20" height="7" fill="#eeedf3" opacity="1"/><rect x="186" y="861" width="20" height="7" fill="#eeedf3" opacity="0.16"/><text x="196" y="904" text-anchor="middle" font-size="11" fill="#eeedf3" opacity="0.7" font-family="ui-monospace,SFMono-Regular,Menlo,monospace">F</text>
<text x="336" y="876" text-anchor="middle" font-size="15" letter-spacing="1" font-family="ui-monospace,SFMono-Regular,Menlo,monospace"><tspan fill="#aab2bb" font-weight="bold">UNCOMMON</tspan><tspan fill="#eeedf3"> · 7/13 · L1</tspan></text>
<text x="336" y="898" text-anchor="middle" font-size="12" fill="#eeedf3" opacity="0.7" font-family="ui-monospace,SFMono-Regular,Menlo,monospace">executable · declared manifest</text>
<g transform="translate(507 858)"><rect x="0" y="0" width="1" height="26" fill="#eeedf3"/><rect x="3" y="0" width="1" height="26" fill="#eeedf3"/><rect x="7" y="0" width="4" height="26" fill="#eeedf3"/><rect x="13" y="0" width="3" height="26" fill="#eeedf3"/><rect x="18" y="0" width="4" height="26" fill="#eeedf3"/><rect x="24" y="0" width="1" height="26" fill="#eeedf3"/><rect x="28" y="0" width="2" height="26" fill="#eeedf3"/><rect x="32" y="0" width="1" height="26" fill="#eeedf3"/><rect x="36" y="0" width="4" height="26" fill="#eeedf3"/><rect x="43" y="0" width="4" height="26" fill="#eeedf3"/><rect x="49" y="0" width="2" height="26" fill="#eeedf3"/><rect x="53" y="0" width="1" height="26" fill="#eeedf3"/><rect x="57" y="0" width="3" height="26" fill="#eeedf3"/><rect x="62" y="0" width="2" height="26" fill="#eeedf3"/><rect x="67" y="0" width="4" height="26" fill="#eeedf3"/><rect x="73" y="0" width="1" height="26" fill="#eeedf3"/><rect x="77" y="0" width="3" height="26" fill="#eeedf3"/><rect x="83" y="0" width="3" height="26" fill="#eeedf3"/><rect x="89" y="0" width="4" height="26" fill="#eeedf3"/><rect x="95" y="0" width="4" height="26" fill="#eeedf3"/><rect x="101" y="0" width="3" height="26" fill="#eeedf3"/><rect x="106" y="0" width="3" height="26" fill="#eeedf3"/></g>
<text x="616" y="900" text-anchor="end" font-size="10" fill="#eeedf3" opacity="0.75" font-family="ui-monospace,SFMono-Regular,Menlo,monospace">sha256 25a6e45a2ce7</text>
<text x="616" y="914" text-anchor="end" font-size="10" fill="#eeedf3" opacity="0.75" font-family="ui-monospace,SFMono-Regular,Menlo,monospace">EXP 2027-07-27</text>
<rect width="672" height="936" filter="url(#grain)" opacity="0.287"/>
</svg>
