<svg xmlns="http://www.w3.org/2000/svg" width="672" height="936" viewBox="0 0 672 936" font-family="Georgia,'Times New Roman',serif">
<defs>
<filter id="grain"><feTurbulence type="fractalNoise" baseFrequency="0.9" numOctaves="2" seed="85" stitchTiles="stitch"/><feColorMatrix type="matrix" values="0 0 0 0 0 0 0 0 0 0 0 0 0 0 0 0.55 0.55 0.55 0 0"/></filter>
</defs>
<rect width="672" height="936" fill="#1f2e33"/>
<clipPath id="artc"><rect x="0" y="0" width="672" height="800"/></clipPath><g clip-path="url(#artc)"><g transform="translate(0 0)"><rect width="672" height="800" fill="#1f2e33"/><g transform="translate(272.5 476.4) rotate(-8.9)"><polygon points="0.0,-1.4 39.1,8.7 78.2,-8.2 117.3,8.9 156.4,3.6 195.5,-5.0 234.6,-6.3 280.6,0.0 271.3,73.6 277.1,147.1 279.3,220.7 274.2,294.3 273.8,376.5 234.6,359.3 195.5,370.9 156.4,372.5 117.3,370.5 78.2,362.3 39.1,373.9 -7.3,367.9 -7.3,294.3 -1.6,220.7 -9.8,147.1 7.9,73.6" fill="#e2c05a" opacity="0.96"/></g><g transform="translate(191.4 329.4) rotate(6.5)"><polygon points="0.0,-6.7 30.1,-5.5 60.1,-5.0 90.2,-4.7 120.3,2.8 150.3,-2.1 180.4,3.9 203.8,0.0 207.4,39.4 213.1,78.7 216.1,118.1 217.2,157.4 210.5,204.5 180.4,194.6 150.3,190.4 120.3,197.4 90.2,202.8 60.1,190.9 30.1,192.7 3.6,196.8 -4.7,157.4 1.8,118.1 -5.2,78.7 5.3,39.4" fill="#6fb1bd" opacity="0.96"/></g><g transform="translate(492.8 70.4) rotate(1.2)"><polygon points="0.0,0.0 40.3,1.8 80.5,-4.7 120.8,-10.4 161.0,-5.5 201.3,1.5 241.5,0.7 281.0,0.0 285.6,72.9 273.0,145.7 280.5,218.6 278.2,291.5 281.8,356.2 241.5,366.2 201.3,367.4 161.0,367.0 120.8,354.6 80.5,367.5 40.3,363.4 -10.1,364.3 3.6,291.5 -4.0,218.6 5.8,145.7 -4.5,72.9" fill="#e08050" opacity="0.96"/></g><g transform="translate(466.7 112.3) rotate(8.0)"><polygon points="0.0,-7.4 37.6,-6.9 75.1,-2.6 112.7,-2.7 150.3,5.4 187.8,-6.6 225.4,9.8 257.6,0.0 260.1,53.8 268.0,107.6 255.6,161.3 270.8,215.1 262.9,269.1 225.4,274.4 187.8,269.3 150.3,267.7 112.7,261.0 75.1,262.8 37.6,265.8 5.3,268.9 1.4,215.1 3.0,161.3 -4.0,107.6 -5.9,53.8" fill="#e2c05a" opacity="0.96"/></g><g transform="translate(389.2 157.8) rotate(13.4)"><polygon points="0.0,6.9 37.4,-3.8 74.8,7.7 112.3,4.2 149.7,-5.2 187.1,-5.9 224.5,-0.8 259.5,0.0 267.6,38.4 260.0,76.9 256.8,115.3 262.4,153.8 261.9,188.3 224.5,196.3 187.1,187.3 149.7,193.9 112.3,196.6 74.8,187.9 37.4,185.9 -3.3,192.2 -2.9,153.8 -6.7,115.3 -4.8,76.9 6.9,38.4" fill="#6fb1bd" opacity="0.96"/></g><g transform="translate(361.3 214.7) rotate(-9.4)"><circle cx="0" cy="0" r="2.6" fill="#efeadf"/><circle cx="13" cy="0" r="2.6" fill="#efeadf"/><circle cx="26" cy="0" r="2.6" fill="#efeadf"/><circle cx="39" cy="0" r="2.6" fill="#efeadf"/><circle cx="52" cy="0" r="2.6" fill="#efeadf"/><circle cx="65" cy="0" r="2.6" fill="#efeadf"/><circle cx="78" cy="0" r="2.6" fill="#efeadf"/><circle cx="0" cy="13" r="2.6" fill="#efeadf"/><circle cx="13" cy="13" r="2.6" fill="#efeadf"/><circle cx="26" cy="13" r="2.6" fill="#efeadf"/><circle cx="39" cy="13" r="2.6" fill="#efeadf"/><circle cx="52" cy="13" r="2.6" fill="#efeadf"/><circle cx="65" cy="13" r="2.6" fill="#efeadf"/><circle cx="78" cy="13" r="2.6" fill="#efeadf"/><circle cx="0" cy="26" r="2.6" fill="#efeadf"/><circle cx="13" cy="26" r="2.6" fill="#efeadf"/><circle cx="26" cy="26" r="2.6" fill="#efeadf"/><circle cx="39" cy="26" r="2.6" fill="#efeadf"/><circle cx="52" cy="26" r="2.6" fill="#efeadf"/><circle cx="65" cy="26" r="2.6" fill="#efeadf"/><circle cx="78" cy="26" r="2.6" fill="#efeadf"/><circle cx="0" cy="39" r="2.6" fill="#efeadf"/><circle cx="13" cy="39" r="2.6" fill="#efeadf"/><circle cx="26" cy="39" r="2.6" fill="#efeadf"/><circle cx="39" cy="39" r="2.6" fill="#efeadf"/><circle cx="52" cy="39" r="2.6" fill="#efeadf"/><circle cx="65" cy="39" r="2.6" fill="#efeadf"/><circle cx="78" cy="39" r="2.6" fill="#efeadf"/><circle cx="0" cy="52" r="2.6" fill="#efeadf"/><circle cx="13" cy="52" r="2.6" fill="#efeadf"/><circle cx="26" cy="52" r="2.6" fill="#efeadf"/><circle cx="39" cy="52" r="2.6" fill="#efeadf"/><circle cx="52" cy="52" r="2.6" fill="#efeadf"/><circle cx="65" cy="52" r="2.6" fill="#efeadf"/><circle cx="78" cy="52" r="2.6" fill="#efeadf"/></g><circle cx="511.4" cy="186.0" r="66.9" fill="none" stroke="#efeadf" stroke-width="2"/></g></g><rect x="118" y="316" width="437" height="260" fill="#1f2e33"/><text x="336" y="364" text-anchor="middle" font-size="14" letter-spacing="4" fill="#efeadf" opacity="0.75" font-family="ui-monospace,SFMono-Regular,Menlo,monospace">FRONTEND / UI</text><text x="336" y="432" text-anchor="middle" font-size="46" font-weight="bold" letter-spacing="2" fill="#efeadf" font-family="Georgia,'Times New Roman',serif">ASK</text><text x="336" y="481" text-anchor="middle" font-size="46" font-weight="bold" letter-spacing="2" fill="#efeadf" font-family="Georgia,'Times New Roman',serif">UX</text><text x="336" y="513" text-anchor="middle" font-size="17" font-style="italic" fill="#efeadf" opacity="0.72">Force UX questioning before any UI work,</text><text x="336" y="536" text-anchor="middle" font-size="17" font-style="italic" fill="#efeadf" opacity="0.72">refactor, or redesign. Use when the user...</text>
<text x="336" y="832" text-anchor="middle" font-size="13" letter-spacing="1" fill="#efeadf" opacity="0.75" font-family="ui-monospace,SFMono-Regular,Menlo,monospace">did:web:saschb2b.com</text>
<line x1="56" y1="850" x2="616" y2="850" stroke="#efeadf" stroke-width="1" opacity="0.35"/>
<rect x="56" y="879" width="20" height="7" fill="#efeadf" opacity="1"/><rect x="56" y="870" width="20" height="7" fill="#efeadf" opacity="1"/><rect x="56" y="861" width="20" height="7" fill="#efeadf" opacity="1"/><text x="66" y="904" text-anchor="middle" font-size="11" fill="#efeadf" opacity="0.7" font-family="ui-monospace,SFMono-Regular,Menlo,monospace">I</text><rect x="82" y="879" width="20" height="7" fill="#efeadf" opacity="1"/><rect x="82" y="870" width="20" height="7" fill="#efeadf" opacity="1"/><rect x="82" y="861" width="20" height="7" fill="#efeadf" opacity="1"/><text x="92" y="904" text-anchor="middle" font-size="11" fill="#efeadf" opacity="0.7" font-family="ui-monospace,SFMono-Regular,Menlo,monospace">A</text><rect x="108" y="879" width="20" height="7" fill="#efeadf" opacity="1"/><rect x="108" y="870" width="20" height="7" fill="#efeadf" opacity="1"/><rect x="108" y="861" width="20" height="7" fill="#efeadf" opacity="0.16"/><text x="118" y="904" text-anchor="middle" font-size="11" fill="#efeadf" opacity="0.7" font-family="ui-monospace,SFMono-Regular,Menlo,monospace">C</text><rect x="134" y="879" width="20" height="7" fill="#efeadf" opacity="0.16"/><rect x="134" y="870" width="20" height="7" fill="#efeadf" opacity="0.16"/><rect x="134" y="861" width="20" height="7" fill="#efeadf" opacity="0.16"/><text x="144" y="904" text-anchor="middle" font-size="11" fill="#efeadf" opacity="0.7" font-family="ui-monospace,SFMono-Regular,Menlo,monospace">P</text><rect x="160" y="879" width="20" height="7" fill="#efeadf" opacity="0.16"/><rect x="160" y="870" width="20" height="7" fill="#efeadf" opacity="0.16"/><rect x="160" y="861" width="20" height="7" fill="#efeadf" opacity="0.16"/><text x="170" y="904" text-anchor="middle" font-size="11" fill="#efeadf" opacity="0.7" font-family="ui-monospace,SFMono-Regular,Menlo,monospace">V</text><rect x="186" y="879" width="20" height="7" fill="#efeadf" opacity="1"/><rect x="186" y="870" width="20" height="7" fill="#efeadf" opacity="1"/><rect x="186" y="861" width="20" height="7" fill="#efeadf" opacity="0.16"/><text x="196" y="904" text-anchor="middle" font-size="11" fill="#efeadf" opacity="0.7" font-family="ui-monospace,SFMono-Regular,Menlo,monospace">F</text>
<text x="336" y="876" text-anchor="middle" font-size="15" letter-spacing="1" font-family="ui-monospace,SFMono-Regular,Menlo,monospace"><tspan fill="#d4af37" font-weight="bold">RARE</tspan><tspan fill="#efeadf"> · 10/13 · L1</tspan></text>
<text x="336" y="898" text-anchor="middle" font-size="12" fill="#efeadf" opacity="0.7" font-family="ui-monospace,SFMono-Regular,Menlo,monospace">executable · declared manifest</text>
<g transform="translate(510 858)"><rect x="0" y="0" width="3" height="26" fill="#efeadf"/><rect x="6" y="0" width="3" height="26" fill="#efeadf"/><rect x="11" y="0" width="1" height="26" fill="#efeadf"/><rect x="15" y="0" width="2" height="26" fill="#efeadf"/><rect x="20" y="0" width="3" height="26" fill="#efeadf"/><rect x="26" y="0" width="2" height="26" fill="#efeadf"/><rect x="31" y="0" width="1" height="26" fill="#efeadf"/><rect x="35" y="0" width="3" height="26" fill="#efeadf"/><rect x="41" y="0" width="4" height="26" fill="#efeadf"/><rect x="48" y="0" width="1" height="26" fill="#efeadf"/><rect x="51" y="0" width="2" height="26" fill="#efeadf"/><rect x="56" y="0" width="3" height="26" fill="#efeadf"/><rect x="62" y="0" width="3" height="26" fill="#efeadf"/><rect x="67" y="0" width="1" height="26" fill="#efeadf"/><rect x="71" y="0" width="1" height="26" fill="#efeadf"/><rect x="74" y="0" width="4" height="26" fill="#efeadf"/><rect x="80" y="0" width="2" height="26" fill="#efeadf"/><rect x="85" y="0" width="3" height="26" fill="#efeadf"/><rect x="91" y="0" width="1" height="26" fill="#efeadf"/><rect x="94" y="0" width="1" height="26" fill="#efeadf"/><rect x="97" y="0" width="4" height="26" fill="#efeadf"/><rect x="104" y="0" width="2" height="26" fill="#efeadf"/></g>
<text x="616" y="900" text-anchor="end" font-size="10" fill="#efeadf" opacity="0.75" font-family="ui-monospace,SFMono-Regular,Menlo,monospace">sha256 b8c42ed67080</text>
<text x="616" y="914" text-anchor="end" font-size="10" fill="#efeadf" opacity="0.75" font-family="ui-monospace,SFMono-Regular,Menlo,monospace">EXP 2027-06-29</text>
<rect width="672" height="936" filter="url(#grain)" opacity="0.28"/>
</svg>
