<svg xmlns="http://www.w3.org/2000/svg" width="672" height="936" viewBox="0 0 672 936" font-family="Georgia,'Times New Roman',serif">
<defs>
<filter id="grain"><feTurbulence type="fractalNoise" baseFrequency="0.9" numOctaves="2" seed="45" stitchTiles="stitch"/><feColorMatrix type="matrix" values="0 0 0 0 0 0 0 0 0 0 0 0 0 0 0 0.55 0.55 0.55 0 0"/></filter>
</defs>
<rect width="672" height="936" fill="#efedea"/>
<text x="336" y="108" text-anchor="middle" font-size="14" letter-spacing="4" fill="#1c1b21" opacity="0.75" font-family="ui-monospace,SFMono-Regular,Menlo,monospace">SECURITY</text><text x="336" y="186" text-anchor="middle" font-size="56" font-weight="bold" letter-spacing="1" fill="#1c1b21" font-family="ui-monospace,SFMono-Regular,Menlo,monospace">AUDIT</text><text x="336" y="245" text-anchor="middle" font-size="56" font-weight="bold" letter-spacing="1" fill="#1c1b21" font-family="ui-monospace,SFMono-Regular,Menlo,monospace">ACTIONS</text><text x="336" y="281" text-anchor="middle" font-size="17" font-style="italic" fill="#1c1b21" opacity="0.72">Audit a repository's GitHub Actions workflows for unsafe</text><text x="336" y="304" text-anchor="middle" font-size="17" font-style="italic" fill="#1c1b21" opacity="0.72">pull_request_target usage that can lead to supply chain...</text><clipPath id="artc"><rect x="0" y="340" width="672" height="460"/></clipPath><g clip-path="url(#artc)"><g transform="translate(0 340)"><rect width="672" height="460" fill="#efedea"/><circle cx="368.8" cy="327.2" r="299.1" fill="#45444e"/><circle cx="368.8" cy="327.2" r="239.3" fill="#1c1b21"/><circle cx="368.8" cy="327.2" r="179.5" fill="#c03b2d"/><circle cx="368.8" cy="327.2" r="119.7" fill="#b7b2a6"/><circle cx="368.8" cy="327.2" r="59.8" fill="#45444e"/><circle cx="413.5" cy="102.6" r="11.7" fill="#45444e"/></g></g>
<text x="336" y="832" text-anchor="middle" font-size="13" letter-spacing="1" fill="#1c1b21" opacity="0.75" font-family="ui-monospace,SFMono-Regular,Menlo,monospace">did:web:saschb2b.com</text>
<line x1="56" y1="850" x2="616" y2="850" stroke="#1c1b21" stroke-width="1" opacity="0.35"/>
<rect x="56" y="879" width="20" height="7" fill="#1c1b21" opacity="1"/><rect x="56" y="870" width="20" height="7" fill="#1c1b21" opacity="1"/><rect x="56" y="861" width="20" height="7" fill="#1c1b21" opacity="1"/><text x="66" y="904" text-anchor="middle" font-size="11" fill="#1c1b21" opacity="0.7" font-family="ui-monospace,SFMono-Regular,Menlo,monospace">I</text><rect x="82" y="879" width="20" height="7" fill="#1c1b21" opacity="1"/><rect x="82" y="870" width="20" height="7" fill="#1c1b21" opacity="1"/><rect x="82" y="861" width="20" height="7" fill="#1c1b21" opacity="1"/><text x="92" y="904" text-anchor="middle" font-size="11" fill="#1c1b21" opacity="0.7" font-family="ui-monospace,SFMono-Regular,Menlo,monospace">A</text><rect x="108" y="879" width="20" height="7" fill="#1c1b21" opacity="1"/><rect x="108" y="870" width="20" height="7" fill="#1c1b21" opacity="1"/><rect x="108" y="861" width="20" height="7" fill="#1c1b21" opacity="0.16"/><text x="118" y="904" text-anchor="middle" font-size="11" fill="#1c1b21" opacity="0.7" font-family="ui-monospace,SFMono-Regular,Menlo,monospace">C</text><rect x="134" y="879" width="20" height="7" fill="#1c1b21" opacity="0.16"/><rect x="134" y="870" width="20" height="7" fill="#1c1b21" opacity="0.16"/><rect x="134" y="861" width="20" height="7" fill="#1c1b21" opacity="0.16"/><text x="144" y="904" text-anchor="middle" font-size="11" fill="#1c1b21" opacity="0.7" font-family="ui-monospace,SFMono-Regular,Menlo,monospace">P</text><rect x="160" y="879" width="20" height="7" fill="#1c1b21" opacity="0.16"/><rect x="160" y="870" width="20" height="7" fill="#1c1b21" opacity="0.16"/><rect x="160" y="861" width="20" height="7" fill="#1c1b21" opacity="0.16"/><text x="170" y="904" text-anchor="middle" font-size="11" fill="#1c1b21" opacity="0.7" font-family="ui-monospace,SFMono-Regular,Menlo,monospace">V</text><rect x="186" y="879" width="20" height="7" fill="#1c1b21" opacity="1"/><rect x="186" y="870" width="20" height="7" fill="#1c1b21" opacity="1"/><rect x="186" y="861" width="20" height="7" fill="#1c1b21" opacity="0.16"/><text x="196" y="904" text-anchor="middle" font-size="11" fill="#1c1b21" opacity="0.7" font-family="ui-monospace,SFMono-Regular,Menlo,monospace">F</text>
<text x="336" y="876" text-anchor="middle" font-size="15" letter-spacing="1" font-family="ui-monospace,SFMono-Regular,Menlo,monospace"><tspan fill="#d4af37" font-weight="bold">RARE</tspan><tspan fill="#1c1b21"> · 10/13 · L1</tspan></text>
<text x="336" y="898" text-anchor="middle" font-size="12" fill="#1c1b21" opacity="0.7" font-family="ui-monospace,SFMono-Regular,Menlo,monospace">executable · declared manifest</text>
<g transform="translate(509 858)"><rect x="0" y="0" width="2" height="26" fill="#1c1b21"/><rect x="5" y="0" width="2" height="26" fill="#1c1b21"/><rect x="9" y="0" width="2" height="26" fill="#1c1b21"/><rect x="14" y="0" width="1" height="26" fill="#1c1b21"/><rect x="18" y="0" width="3" height="26" fill="#1c1b21"/><rect x="23" y="0" width="4" height="26" fill="#1c1b21"/><rect x="30" y="0" width="1" height="26" fill="#1c1b21"/><rect x="33" y="0" width="3" height="26" fill="#1c1b21"/><rect x="39" y="0" width="1" height="26" fill="#1c1b21"/><rect x="43" y="0" width="1" height="26" fill="#1c1b21"/><rect x="47" y="0" width="2" height="26" fill="#1c1b21"/><rect x="52" y="0" width="2" height="26" fill="#1c1b21"/><rect x="57" y="0" width="2" height="26" fill="#1c1b21"/><rect x="62" y="0" width="4" height="26" fill="#1c1b21"/><rect x="68" y="0" width="4" height="26" fill="#1c1b21"/><rect x="74" y="0" width="4" height="26" fill="#1c1b21"/><rect x="80" y="0" width="4" height="26" fill="#1c1b21"/><rect x="86" y="0" width="3" height="26" fill="#1c1b21"/><rect x="91" y="0" width="2" height="26" fill="#1c1b21"/><rect x="95" y="0" width="2" height="26" fill="#1c1b21"/><rect x="100" y="0" width="1" height="26" fill="#1c1b21"/><rect x="104" y="0" width="2" height="26" fill="#1c1b21"/></g>
<text x="616" y="900" text-anchor="end" font-size="10" fill="#1c1b21" opacity="0.75" font-family="ui-monospace,SFMono-Regular,Menlo,monospace">sha256 d8ac9d1ac04b</text>
<text x="616" y="914" text-anchor="end" font-size="10" fill="#1c1b21" opacity="0.75" font-family="ui-monospace,SFMono-Regular,Menlo,monospace">EXP 2027-06-29</text>
<rect width="672" height="936" filter="url(#grain)" opacity="0.28"/>
</svg>
