<svg xmlns="http://www.w3.org/2000/svg" width="672" height="936" viewBox="0 0 672 936" font-family="Georgia,'Times New Roman',serif" data-visual-key="59c6833b22b7" data-palette="15" data-style="4" data-layout="0" data-content-files="15" data-content-words="8650" data-content-headings="110">
<defs>
<filter id="grain"><feTurbulence type="fractalNoise" baseFrequency="0.9" numOctaves="2" seed="72" stitchTiles="stitch"/><feColorMatrix type="matrix" values="0 0 0 0 0 0 0 0 0 0 0 0 0 0 0 0.55 0.55 0.55 0 0"/></filter>
</defs>
<rect width="672" height="936" fill="#f0ebe2"/>
<clipPath id="artc"><rect x="0" y="0" width="672" height="552"/></clipPath><g clip-path="url(#artc)"><g transform="translate(0 0)"><g transform="translate(335.0 277.7) rotate(0.67) scale(1.0057) translate(-336 -276.0)"><rect width="672" height="552" fill="#f0ebe2"/><g transform="translate(209.1 297.2) rotate(1.6)"><polygon points="0.0,-0.7 46.3,-3.7 92.6,-7.3 138.9,-5.2 185.1,7.0 231.4,-6.6 277.7,7.2 322.4,0.0 328.1,42.8 326.0,85.7 323.7,128.5 322.1,171.3 324.0,211.0 277.7,210.0 231.4,212.4 185.1,206.5 138.9,208.5 92.6,213.9 46.3,211.6 1.9,214.2 1.0,171.3 6.9,128.5 6.6,85.7 -5.0,42.8" fill="#c8683a" style="mix-blend-mode:multiply" opacity="0.9"/></g><g transform="translate(80.2 242.7) rotate(-7.1)"><polygon points="0.0,4.8 32.5,2.3 64.9,-5.7 97.4,1.2 129.8,5.8 162.3,0.3 194.8,-1.0 234.1,0.0 223.6,48.9 229.3,97.8 231.4,146.7 233.6,195.7 227.2,247.1 194.8,239.4 162.3,248.4 129.8,245.6 97.4,251.1 64.9,238.0 32.5,252.3 -7.3,244.6 0.5,195.7 -5.9,146.7 -3.9,97.8 7.0,48.9" fill="#3e7c8a" style="mix-blend-mode:multiply" opacity="0.9"/></g><g transform="translate(370.2 206.8) rotate(7.1)"><polygon points="0.0,-2.3 27.1,4.6 54.2,6.6 81.2,-5.5 108.3,6.1 135.4,0.6 162.5,-7.3 191.4,0.0 186.4,42.5 188.4,85.1 192.3,127.6 191.1,170.2 189.6,212.2 162.5,212.6 135.4,213.0 108.3,205.4 81.2,218.8 54.2,214.1 27.1,207.0 5.8,212.7 -1.5,170.2 -2.9,127.6 5.3,85.1 0.5,42.5" fill="#d8b13f" style="mix-blend-mode:multiply" opacity="0.9"/></g><g transform="translate(463.4 363.4) rotate(-7.6)"><polygon points="0.0,-2.9 28.0,-0.5 56.0,1.7 84.1,-0.5 112.1,-2.2 140.1,-1.5 168.1,7.5 198.8,0.0 194.1,47.3 188.3,94.6 189.3,141.9 196.3,189.3 196.1,238.7 168.1,242.6 140.1,232.9 112.1,233.9 84.1,232.6 56.0,228.8 28.0,237.0 4.7,236.6 -2.9,189.3 6.3,141.9 -6.7,94.6 -1.9,47.3" fill="#c8683a" style="mix-blend-mode:multiply" opacity="0.9"/></g><g transform="translate(418.8 34.0) rotate(3.0)"><polygon points="0.0,0.4 35.4,-4.9 70.8,5.9 106.1,-8.5 141.5,-3.2 176.9,-3.2 212.3,-1.1 238.5,0.0 243.4,50.0 239.5,100.1 255.2,150.1 251.7,200.1 247.7,255.2 212.3,244.5 176.9,248.5 141.5,245.2 106.1,258.2 70.8,251.8 35.4,248.7 -2.5,250.2 1.2,200.1 7.6,150.1 -4.7,100.1 4.5,50.0" fill="#3e7c8a" style="mix-blend-mode:multiply" opacity="0.9"/></g><g transform="translate(235.9 293.5) rotate(4.2)"><circle cx="0" cy="0" r="2.6" fill="#2c3540"/><circle cx="13" cy="0" r="2.6" fill="#2c3540"/><circle cx="26" cy="0" r="2.6" fill="#2c3540"/><circle cx="39" cy="0" r="2.6" fill="#2c3540"/><circle cx="52" cy="0" r="2.6" fill="#2c3540"/><circle cx="65" cy="0" r="2.6" fill="#2c3540"/><circle cx="78" cy="0" r="2.6" fill="#2c3540"/><circle cx="0" cy="13" r="2.6" fill="#2c3540"/><circle cx="13" cy="13" r="2.6" fill="#2c3540"/><circle cx="26" cy="13" r="2.6" fill="#2c3540"/><circle cx="39" cy="13" r="2.6" fill="#2c3540"/><circle cx="52" cy="13" r="2.6" fill="#2c3540"/><circle cx="65" cy="13" r="2.6" fill="#2c3540"/><circle cx="78" cy="13" r="2.6" fill="#2c3540"/><circle cx="0" cy="26" r="2.6" fill="#2c3540"/><circle cx="13" cy="26" r="2.6" fill="#2c3540"/><circle cx="26" cy="26" r="2.6" fill="#2c3540"/><circle cx="39" cy="26" r="2.6" fill="#2c3540"/><circle cx="52" cy="26" r="2.6" fill="#2c3540"/><circle cx="65" cy="26" r="2.6" fill="#2c3540"/><circle cx="78" cy="26" r="2.6" fill="#2c3540"/><circle cx="0" cy="39" r="2.6" fill="#2c3540"/><circle cx="13" cy="39" r="2.6" fill="#2c3540"/><circle cx="26" cy="39" r="2.6" fill="#2c3540"/><circle cx="39" cy="39" r="2.6" fill="#2c3540"/><circle cx="52" cy="39" r="2.6" fill="#2c3540"/><circle cx="65" cy="39" r="2.6" fill="#2c3540"/><circle cx="78" cy="39" r="2.6" fill="#2c3540"/><circle cx="0" cy="52" r="2.6" fill="#2c3540"/><circle cx="13" cy="52" r="2.6" fill="#2c3540"/><circle cx="26" cy="52" r="2.6" fill="#2c3540"/><circle cx="39" cy="52" r="2.6" fill="#2c3540"/><circle cx="52" cy="52" r="2.6" fill="#2c3540"/><circle cx="65" cy="52" r="2.6" fill="#2c3540"/><circle cx="78" cy="52" r="2.6" fill="#2c3540"/></g><circle cx="469.1" cy="192.0" r="88.4" fill="none" stroke="#2c3540" stroke-width="2"/></g></g></g><text x="336" y="594" text-anchor="middle" font-size="14" letter-spacing="4" fill="#2c3540" opacity="0.75" font-family="ui-monospace,SFMono-Regular,Menlo,monospace">MOBILE</text><text x="336" y="669" text-anchor="middle" font-size="58" font-weight="bold" letter-spacing="2" fill="#2c3540" font-family="Georgia,'Times New Roman',serif">ANDROID</text><text x="336" y="731" text-anchor="middle" font-size="58" font-weight="bold" letter-spacing="2" fill="#2c3540" font-family="Georgia,'Times New Roman',serif">COMPOSE</text><text x="336" y="765" text-anchor="middle" font-size="17" font-style="italic" fill="#2c3540" opacity="0.72">Modern Android development with Jetpack Compose as the</text><text x="336" y="788" text-anchor="middle" font-size="17" font-style="italic" fill="#2c3540" opacity="0.72">default UI toolkit and Material 3 Expressive as the...</text>
<text x="336" y="832" text-anchor="middle" font-size="13" letter-spacing="1" fill="#2c3540" opacity="0.75" font-family="ui-monospace,SFMono-Regular,Menlo,monospace">did:web:saschb2b.com</text>
<line x1="56" y1="850" x2="616" y2="850" stroke="#2c3540" stroke-width="1" opacity="0.35"/>
<rect x="56" y="879" width="20" height="7" fill="#2c3540" opacity="1"/><rect x="56" y="870" width="20" height="7" fill="#2c3540" opacity="1"/><rect x="56" y="861" width="20" height="7" fill="#2c3540" opacity="1"/><text x="66" y="904" text-anchor="middle" font-size="11" fill="#2c3540" opacity="0.7" font-family="ui-monospace,SFMono-Regular,Menlo,monospace">I</text><rect x="82" y="879" width="20" height="7" fill="#2c3540" opacity="1"/><rect x="82" y="870" width="20" height="7" fill="#2c3540" opacity="1"/><rect x="82" y="861" width="20" height="7" fill="#2c3540" opacity="1"/><text x="92" y="904" text-anchor="middle" font-size="11" fill="#2c3540" opacity="0.7" font-family="ui-monospace,SFMono-Regular,Menlo,monospace">A</text><rect x="108" y="879" width="20" height="7" fill="#2c3540" opacity="1"/><rect x="108" y="870" width="20" height="7" fill="#2c3540" opacity="1"/><rect x="108" y="861" width="20" height="7" fill="#2c3540" opacity="0.16"/><text x="118" y="904" text-anchor="middle" font-size="11" fill="#2c3540" opacity="0.7" font-family="ui-monospace,SFMono-Regular,Menlo,monospace">C</text><rect x="134" y="879" width="20" height="7" fill="#2c3540" opacity="0.16"/><rect x="134" y="870" width="20" height="7" fill="#2c3540" opacity="0.16"/><rect x="134" y="861" width="20" height="7" fill="#2c3540" opacity="0.16"/><text x="144" y="904" text-anchor="middle" font-size="11" fill="#2c3540" opacity="0.7" font-family="ui-monospace,SFMono-Regular,Menlo,monospace">P</text><rect x="160" y="879" width="20" height="7" fill="#2c3540" opacity="0.16"/><rect x="160" y="870" width="20" height="7" fill="#2c3540" opacity="0.16"/><rect x="160" y="861" width="20" height="7" fill="#2c3540" opacity="0.16"/><text x="170" y="904" text-anchor="middle" font-size="11" fill="#2c3540" opacity="0.7" font-family="ui-monospace,SFMono-Regular,Menlo,monospace">V</text><rect x="186" y="879" width="20" height="7" fill="#2c3540" opacity="1"/><rect x="186" y="870" width="20" height="7" fill="#2c3540" opacity="1"/><rect x="186" y="861" width="20" height="7" fill="#2c3540" opacity="0.16"/><text x="196" y="904" text-anchor="middle" font-size="11" fill="#2c3540" opacity="0.7" font-family="ui-monospace,SFMono-Regular,Menlo,monospace">F</text>
<text x="336" y="876" text-anchor="middle" font-size="15" letter-spacing="1" font-family="ui-monospace,SFMono-Regular,Menlo,monospace"><tspan fill="#d4af37" font-weight="bold">RARE</tspan><tspan fill="#2c3540"> · 10/13 · L1</tspan></text>
<text x="336" y="898" text-anchor="middle" font-size="12" fill="#2c3540" opacity="0.7" font-family="ui-monospace,SFMono-Regular,Menlo,monospace">executable · declared manifest</text>
<g transform="translate(506 858)"><rect x="0" y="0" width="2" height="26" fill="#2c3540"/><rect x="5" y="0" width="3" height="26" fill="#2c3540"/><rect x="11" y="0" width="1" height="26" fill="#2c3540"/><rect x="15" y="0" width="1" height="26" fill="#2c3540"/><rect x="19" y="0" width="1" height="26" fill="#2c3540"/><rect x="22" y="0" width="4" height="26" fill="#2c3540"/><rect x="29" y="0" width="3" height="26" fill="#2c3540"/><rect x="34" y="0" width="1" height="26" fill="#2c3540"/><rect x="38" y="0" width="3" height="26" fill="#2c3540"/><rect x="43" y="0" width="4" height="26" fill="#2c3540"/><rect x="49" y="0" width="4" height="26" fill="#2c3540"/><rect x="55" y="0" width="4" height="26" fill="#2c3540"/><rect x="62" y="0" width="2" height="26" fill="#2c3540"/><rect x="67" y="0" width="2" height="26" fill="#2c3540"/><rect x="71" y="0" width="3" height="26" fill="#2c3540"/><rect x="77" y="0" width="3" height="26" fill="#2c3540"/><rect x="82" y="0" width="2" height="26" fill="#2c3540"/><rect x="87" y="0" width="1" height="26" fill="#2c3540"/><rect x="90" y="0" width="1" height="26" fill="#2c3540"/><rect x="94" y="0" width="4" height="26" fill="#2c3540"/><rect x="100" y="0" width="3" height="26" fill="#2c3540"/><rect x="106" y="0" width="4" height="26" fill="#2c3540"/></g>
<text x="616" y="900" text-anchor="end" font-size="10" fill="#2c3540" opacity="0.75" font-family="ui-monospace,SFMono-Regular,Menlo,monospace">sha256 59c6833b22b7</text>
<text x="616" y="914" text-anchor="end" font-size="10" fill="#2c3540" opacity="0.75" font-family="ui-monospace,SFMono-Regular,Menlo,monospace">EXP 2027-07-27</text>
<rect width="672" height="936" filter="url(#grain)" opacity="0.287"/>
</svg>
